<?xml version="1.0" encoding="iso-8859-1"?>
<!-- Uploaded to: SVG Repo, www.svgrepo.com, Generator: SVG Repo Mixer Tools -->
<!DOCTYPE svg PUBLIC "-//W3C//DTD SVG 1.1//EN" "http://www.w3.org/Graphics/SVG/1.1/DTD/svg11.dtd">
<svg fill="#000000" height="800px" width="800px" version="1.1" id="Capa_1" xmlns="http://www.w3.org/2000/svg" xmlns:xlink="http://www.w3.org/1999/xlink" 
	 viewBox="0 0 59 59" xml:space="preserve">
<g>
	<path d="M35,34v24h24V34H35z M57,56h-9V43.414l4.293,4.293l1.414-1.414L47,39.586l-6.707,6.707l1.414,1.414L46,43.414V56h-9V36h20
		V56z"/>
	<path d="M47.673,26.617C49.084,25.97,50,24.575,50,23v-4c0-0.963-0.36-1.896-1-2.625v-5.319c0.056-0.55,0.276-3.824-2.092-6.525
		C44.854,2.188,41.521,1,37,1s-7.854,1.188-9.908,3.53c-1.435,1.637-1.918,3.481-2.064,4.805C23.314,8.449,21.294,8,19,8
		C8.611,8,8.006,16.855,8,17v4.579c-0.648,0.706-1,1.521-1,2.33v3.454c0,1.079,0.483,2.085,1.311,2.765
		c0.825,3.11,2.854,5.46,3.644,6.285v2.743c0,0.787-0.428,1.509-1.171,1.915l-6.653,4.173C1.583,46.634,0,49.301,0,52.203V56h14h2
		h16V31h13.639C46.458,29.634,47.14,28.168,47.673,26.617z M14,54H2v-1.797c0-2.17,1.183-4.164,3.089-5.203l0.053-0.029l0.052-0.032
		l6.609-4.146c1.349-0.764,2.152-2.118,2.152-3.636v-2.743V35.61l-0.555-0.58c-0.558-0.583-2.436-2.698-3.156-5.415l-0.165-0.624
		L9.58,28.582C9.211,28.28,9,27.835,9,27.363v-3.454c0-0.298,0.168-0.645,0.474-0.978L10,22.358v-0.779v-4.506
		C10.078,16.152,10.901,10,19,10c2.392,0,4.408,0.552,6,1.644v4.73c-0.648,0.731-1,1.647-1,2.626v4c0,0.304,0.035,0.603,0.101,0.893
		c0.199,0.867,0.687,1.646,1.393,2.214c0.001,0.001,0.002,0.002,0.003,0.003c0.006,0.023,0.014,0.043,0.019,0.066
		c0.055,0.212,0.116,0.432,0.192,0.686l0.074,0.239c0.011,0.036,0.024,0.067,0.035,0.103c0.063,0.197,0.129,0.387,0.197,0.578
		c0.031,0.088,0.06,0.183,0.092,0.269c0.06,0.162,0.116,0.303,0.173,0.443c0.048,0.12,0.096,0.237,0.146,0.354
		c0.037,0.088,0.075,0.18,0.113,0.266l0.004-0.002c0.018,0.042,0.037,0.083,0.055,0.125l-0.004,0.002
		c0.024,0.055,0.05,0.104,0.075,0.159c0.098,0.216,0.195,0.425,0.296,0.627c0.016,0.033,0.032,0.07,0.048,0.103
		c0.026,0.052,0.053,0.096,0.079,0.147c0.157,0.306,0.311,0.594,0.465,0.864c0.017,0.03,0.033,0.058,0.05,0.087
		c0.575,0.998,1.102,1.742,1.392,2.122L29,36.655c0,0.242-0.033,0.479-0.096,0.706c-0.188,0.68-0.644,1.267-1.282,1.615
		l-8.921,4.866c-0.247,0.135-0.474,0.294-0.705,0.449c-0.108,0.072-0.225,0.133-0.329,0.21c-0.018,0.013-0.033,0.03-0.051,0.043
		C15.361,46.231,14,48.893,14,51.762V54z"/>
</g>
</svg>